<?xml version="1.0" encoding="UTF-8"?>
<svg id="Layer_2" xmlns="http://www.w3.org/2000/svg" viewBox="0 0 92.22 92.22">
  <defs>
    <style>
      .cls-1 {
        fill: #fff;
      }

      .cls-2 {
        fill: none;
        stroke: #fff;
        stroke-miterlimit: 10;
        stroke-width: 2.22px;
      }
    </style>
  </defs>
  <g id="Layer_1-2" data-name="Layer_1">
    <g>
      <path class="cls-1" d="M63.39,72.95c-12.35,7.96-29.04,6.53-39.84-4.27-12.44-12.44-12.44-32.69,0-45.14,10.8-10.8,27.49-12.23,39.84-4.27V4.54C47.06-2.22,27.53,1.02,14.28,14.28-3.28,31.83-3.28,60.39,14.28,77.95c13.25,13.25,32.78,16.5,49.11,9.74v-14.73Z"/>
      <path class="cls-2" d="M14.28,77.95C-3.28,60.39-3.28,31.83,14.28,14.28c17.55-17.55,46.12-17.55,63.67,0,17.55,17.55,17.55,46.12,0,63.67-17.55,17.55-46.12,17.55-63.67,0Z"/>
      <path class="cls-2" d="M68.68,23.54c-12.44-12.44-32.69-12.44-45.14,0-12.44,12.44-12.44,32.69,0,45.14s32.69,12.44,45.14,0c12.44-12.44,12.44-32.69,0-45.14Z"/>
    </g>
  </g>
</svg>